<svg width="42" height="21" viewBox="0 0 42 21" fill="none" xmlns="http://www.w3.org/2000/svg">
<g clip-path="url(#clip0_1405_551)">
<path d="M-0.393799 0.691406H42V20.6914H-0.393799V0.691406Z" fill="black"/>
<path d="M8.65681 6.81793C9.06091 6.68215 9.49196 6.60973 9.93918 6.60973C11.8969 6.60973 13.5312 8.01102 13.9048 9.87397L16.6797 9.30368C16.0439 6.13902 13.2672 3.75647 9.93918 3.75647C9.17586 3.75647 8.44487 3.88139 7.75879 4.11313L8.65681 6.81793Z" fill="#FFCB05"/>
<path d="M5.38249 15.881L7.25935 13.7429C6.42239 12.9952 5.89436 11.9035 5.89436 10.6869C5.89436 9.47206 6.42239 8.38036 7.25935 7.63445L5.38249 5.49451C3.96003 6.76544 3.06201 8.62115 3.06201 10.6869C3.06201 12.7544 3.96003 14.6101 5.38249 15.881" fill="#00A4E0"/>
<path d="M13.9048 11.5052C13.5295 13.3664 11.8969 14.7659 9.94097 14.7659C9.49196 14.7659 9.05912 14.6934 8.65681 14.5559L7.75879 17.2643C8.44487 17.4942 9.17766 17.6191 9.94097 17.6191C13.2654 17.6191 16.0403 15.2402 16.6797 12.0792L13.9048 11.5052Z" fill="#EF4123"/>
<path d="M19.106 13.8316C19.0144 13.6831 18.8923 13.4459 18.8168 13.2703C18.3768 12.242 18.3571 11.1775 18.727 10.1564C19.1347 9.03569 19.9142 8.17935 20.9218 7.74122C22.188 7.19266 23.5871 7.29948 24.8012 8.02546C25.5717 8.47083 26.1177 9.1588 26.5326 10.1328C26.5847 10.2577 26.6314 10.3899 26.6781 10.504L19.106 13.8316ZM21.6348 9.39416C20.735 9.78341 20.2716 10.6343 20.3686 11.6301L24.1762 9.97713C23.5207 9.20226 22.6693 8.94517 21.6348 9.39416V9.39416ZM24.6504 12.9897C24.6486 12.9897 24.6486 12.9915 24.6486 12.9915L24.5695 12.9372C24.3414 13.3083 23.9876 13.6107 23.5404 13.8062C22.6891 14.1792 21.9006 14.0832 21.3331 13.5817L21.281 13.6614C21.281 13.6614 21.281 13.6596 21.2792 13.6596L20.3129 15.117C20.5536 15.2854 20.8104 15.4266 21.0798 15.5406C22.1467 15.9878 23.2387 15.9661 24.3145 15.4954C25.0922 15.155 25.7028 14.6372 26.1195 13.98L24.6504 12.9897ZM29.3236 5.59766V13.6976L30.5737 14.2081L29.8643 15.8774L28.4849 15.298C28.176 15.1622 27.9641 14.9559 27.806 14.7223C27.6533 14.4851 27.5402 14.1574 27.5402 13.7193V5.59766H29.3236ZM32.5601 11.6355C32.5601 10.9457 32.8636 10.3265 33.3414 9.90652L32.059 8.4654C31.1897 9.24027 30.6419 10.3718 30.6419 11.6319C30.6401 12.8938 31.1879 14.0271 32.0554 14.802L33.336 13.3608C32.86 12.939 32.5601 12.3235 32.5601 11.6355V11.6355ZM34.8375 13.933C34.586 13.933 34.3418 13.8895 34.1155 13.8135L33.503 15.6474C33.9215 15.7887 34.3687 15.8665 34.8357 15.8665C36.8652 15.8683 38.5589 14.4163 38.9522 12.4882L37.0699 12.1008C36.8562 13.149 35.9384 13.9348 34.8375 13.933V13.933ZM34.8429 7.40448C34.3777 7.40448 33.9305 7.48052 33.512 7.61992L34.1191 9.45572C34.3472 9.37968 34.5896 9.33804 34.8411 9.33804C35.9438 9.33985 36.8634 10.1292 37.0717 11.1793L38.954 10.7954C38.5678 8.8637 36.8742 7.40629 34.8429 7.40448V7.40448Z" fill="white"/>
</g>
<defs>
<clipPath id="clip0_1405_551">
<rect width="42" height="20" fill="white" transform="translate(0 0.691406)"/>
</clipPath>
</defs>
</svg>
